<svg width="108" height="108" viewBox="0 0 108 108" fill="none" xmlns="http://www.w3.org/2000/svg">
<circle cx="54" cy="54" r="50.5" stroke="#40488C" stroke-width="7"/>
<path d="M83.118 35.7027L74.121 26.8636C73.8429 26.5894 73.5123 26.3719 73.1483 26.2237C72.7843 26.0755 72.394 25.9994 72 26H36C35.606 25.9996 35.2158 26.0757 34.8518 26.2239C34.4878 26.3721 34.1572 26.5895 33.879 26.8636L24.882 35.7027C24.602 35.9761 24.3799 36.3012 24.2285 36.6594C24.0771 37.0176 23.9994 37.4017 24 37.7895V76.1053C24 79.3562 26.691 82 30 82H78C81.309 82 84 79.3562 84 76.1053V37.7895C84.0009 37.4016 83.9234 37.0174 83.772 36.6592C83.6206 36.301 83.3983 35.9759 83.118 35.7027ZM37.242 31.8947H70.758L73.758 34.8421H34.242L37.242 31.8947ZM54 73.1579L39 58.4211H48V49.5789H60V58.4211H69L54 73.1579Z" fill="#40488C"/>
</svg>
